<?xml version="1.0" encoding="UTF-8"?>
<svg xmlns="http://www.w3.org/2000/svg" xmlns:xlink="http://www.w3.org/1999/xlink" width="3002" height="3002" viewBox="0 0 3002 3002">
<path fill-rule="nonzero" fill="rgb(100%, 100%, 100%)" fill-opacity="1" d="M 0.851562 3000.851562 L 3000.851562 3000.851562 L 3000.851562 0.851562 L 0.851562 0.851562 Z M 0.851562 3000.851562 "/>
<path fill-rule="nonzero" fill="rgb(99.609375%, 59.568787%, 0%)" fill-opacity="1" d="M 0.851562 0 C 0.625 0 0.410156 0.0898438 0.25 0.25 C 0.0898438 0.410156 0 0.621094 0 0.851562 L 0 3000.851562 C 0 3001.320312 0.382812 3001.703125 0.851562 3001.703125 L 3000.851562 3001.703125 C 3001.078125 3001.703125 3001.289062 3001.613281 3001.449219 3001.453125 C 3001.609375 3001.292969 3001.699219 3001.078125 3001.699219 3000.851562 L 3001.699219 0.851562 C 3001.699219 0.378906 3001.320312 0 3000.851562 0 Z M 0.851562 0 "/>
<path fill-rule="nonzero" fill="rgb(0%, 0%, 0%)" fill-opacity="1" d="M 2509.089844 1720.710938 C 2487.761719 2297.105469 2014.808594 2749.628906 1450.25 2728.730469 C 885.6875 2707.832031 447.484375 2221.585938 468.820312 1645.191406 C 490.15625 1068.789062 963.105469 616.269531 1527.671875 637.160156 C 2092.230469 658.058594 2530.429688 1144.308594 2509.089844 1720.710938 M 2414.289062 1717.199219 C 2433.769531 1190.820312 2034.050781 750.851562 1524.160156 731.980469 C 1014.269531 713.101562 583.113281 1122.320312 563.628906 1648.699219 C 544.148438 2175.074219 943.867188 2615.046875 1453.761719 2633.917969 C 1963.640625 2652.792969 2394.800781 2243.574219 2414.289062 1717.199219 Z M 2414.289062 1717.199219 "/>
<path fill-rule="nonzero" fill="rgb(99.609375%, 59.568787%, 0%)" fill-opacity="1" d="M 2441.539062 1718.210938 C 2421.570312 2257.875 1979.058594 2679.925781 1452.78125 2660.445312 C 926.488281 2640.964844 516.394531 2187.355469 536.371094 1647.691406 C 556.347656 1108.019531 998.851562 685.96875 1525.140625 705.449219 C 2051.429688 724.929688 2461.519531 1178.539062 2441.539062 1718.210938 M 2426.109375 1717.640625 C 2445.78125 1186.109375 2041.949219 740.039062 1524.570312 720.890625 C 1007.179688 701.730469 571.480469 1116.738281 551.804688 1648.261719 C 532.132812 2179.78125 935.960938 2625.859375 1453.351562 2645.007812 C 1970.730469 2664.160156 2406.429688 2249.15625 2426.109375 1717.640625 Z M 2426.109375 1717.640625 "/>
<path fill-rule="nonzero" fill="rgb(0%, 0%, 0%)" fill-opacity="1" d="M 890.324219 565.910156 L 907.515625 550.050781 C 1047.988281 412.410156 1248.21875 342.960938 1508.199219 341.691406 C 1671.339844 330.320312 1825.179688 397.320312 1969.71875 542.679688 C 1912.679688 567.449219 1877.359375 620.828125 1863.730469 702.808594 C 1851.660156 761.101562 1845.070312 829.660156 1843.949219 908.5 L 1848.871094 992.78125 C 1862.789062 995.039062 1868.679688 1014.730469 1866.53125 1051.839844 C 2067.578125 1106.269531 2182.03125 1148.300781 2209.871094 1177.898438 C 2244.519531 1207.210938 2264.691406 1232.148438 2270.398438 1252.730469 C 2286.25 1291.210938 2290.378906 1333.28125 2282.808594 1378.941406 C 2272.550781 1440.808594 2240.339844 1492.238281 2186.199219 1533.238281 C 2139.710938 1568.351562 2065.699219 1604.71875 1964.148438 1642.359375 C 1940.921875 1705.460938 1916.519531 1744.671875 1890.980469 1759.96875 C 1876.921875 1772.589844 1836.929688 1785.160156 1771.019531 1797.691406 C 1797.988281 1831.578125 1806.269531 1862.550781 1795.859375 1890.601562 C 1794.570312 1903.308594 1767.191406 1920.679688 1713.730469 1942.710938 C 1707.289062 1947.160156 1699.609375 1956.890625 1690.71875 1971.910156 C 1738.871094 1974.25 1780.589844 1985.71875 1815.859375 2006.335938 C 1857.75 2010.753906 1889.5 2016.117188 1911.101562 2022.429688 C 1927.960938 2026.164062 1945.089844 2035.351562 1962.5 2049.988281 C 1993.941406 2082.832031 1991.929688 2110.121094 1956.449219 2131.84375 C 2011.648438 2152.445312 2051.21875 2184.953125 2075.140625 2229.375 C 2112.230469 2294.492188 2123.75 2350.78125 2109.671875 2398.234375 C 1988.109375 2493.636719 1875.25 2559.855469 1771.109375 2596.894531 C 1668.070312 2629.558594 1562.160156 2643.496094 1453.378906 2638.699219 C 1334.328125 2634.4375 1232.640625 2613.769531 1148.289062 2576.691406 C 1002.800781 2508.261719 897.558594 2437.511719 832.570312 2364.445312 C 824.34375 2322.863281 840.664062 2274.785156 881.527344 2220.214844 C 918.621094 2163.667969 955.726562 2135.101562 992.851562 2134.515625 C 955.496094 2103.652344 951.367188 2075.757812 980.46875 2050.828125 C 997.210938 2036.925781 1016.449219 2027.199219 1038.179688 2021.640625 L 1114.890625 2009.222656 L 1201.699219 1977.148438 C 1214.570312 1973.851562 1231.070312 1972.679688 1251.210938 1973.621094 C 1247.96875 1959.648438 1242.269531 1949.921875 1234.109375 1944.441406 C 1177.769531 1919.960938 1149.460938 1902.140625 1149.199219 1890.960938 C 1138.191406 1863.339844 1147.550781 1832.328125 1177.261719 1797.921875 C 1088.441406 1796.488281 1025.058594 1751.058594 987.113281 1661.609375 C 807.257812 1681.359375 697.859375 1646.128906 658.914062 1555.929688 C 647.835938 1503.410156 677.058594 1443.460938 746.574219 1376.101562 C 832.421875 1293.089844 940.347656 1230.070312 1070.359375 1187.039062 L 1085.871094 1141.839844 C 1091.601562 1133.28125 1089.371094 1105.128906 1079.179688 1057.390625 C 1079.839844 1046.308594 1084.570312 1035.25 1093.359375 1024.191406 L 1088.019531 962.269531 C 1081.910156 908.480469 1066.558594 843.421875 1041.988281 767.070312 C 1011.898438 663.28125 961.347656 596.230469 890.324219 565.910156 "/>
<path fill-rule="nonzero" fill="rgb(91.796875%, 91.014099%, 87.889099%)" fill-opacity="1" d="M 1383.828125 1348.269531 L 1403.410156 1346.371094 C 1488.890625 1337.640625 1557.609375 1333.109375 1609.570312 1332.78125 C 1656.269531 1332.078125 1719.230469 1336.648438 1798.441406 1346.5 C 1805.320312 1385.980469 1817.171875 1407.910156 1833.980469 1412.269531 C 1842.128906 1411.261719 1846.859375 1407.621094 1848.199219 1401.328125 C 1849.71875 1399.730469 1843.101562 1396.691406 1828.371094 1392.21875 C 1826.28125 1391.328125 1823.808594 1389 1820.941406 1385.199219 C 1815.78125 1376.980469 1813.351562 1365.128906 1813.648438 1349.660156 C 1845.210938 1355.289062 1864.179688 1364.199219 1870.570312 1376.390625 C 1880.429688 1392.628906 1881.289062 1426.339844 1873.128906 1477.53125 L 1867.238281 1517.980469 C 1857.480469 1492.289062 1853.640625 1465.578125 1855.738281 1437.851562 C 1851.058594 1467.210938 1849.839844 1492.441406 1852.089844 1513.511719 C 1853.210938 1526.109375 1857.910156 1539.480469 1866.21875 1553.609375 C 1869.570312 1561.191406 1885.570312 1579.878906 1914.199219 1609.660156 C 1918.71875 1615.21875 1921.699219 1620.171875 1923.160156 1624.519531 C 1927.5 1630.46875 1924.050781 1646.539062 1912.789062 1672.738281 C 1885.460938 1723.339844 1854.558594 1751.890625 1820.058594 1758.378906 C 1806.800781 1761.929688 1783.070312 1761.019531 1748.890625 1755.640625 C 1783.441406 1755.109375 1809.640625 1744.589844 1827.449219 1724.089844 C 1793.75 1738.03125 1771.070312 1744.820312 1759.421875 1744.441406 C 1751.339844 1744.859375 1743.96875 1743.75 1737.300781 1741.109375 C 1729.671875 1738.210938 1718.75 1731.640625 1704.558594 1721.371094 C 1699.28125 1718.660156 1696.230469 1717.480469 1695.421875 1717.839844 C 1694.441406 1717.371094 1691.710938 1717.730469 1687.199219 1718.921875 L 1664.871094 1728.960938 L 1651.089844 1731.730469 C 1641.441406 1733.238281 1620.691406 1732.378906 1588.828125 1729.128906 C 1596.699219 1738.351562 1606.320312 1744.558594 1617.679688 1747.78125 C 1621.359375 1749.761719 1641.75 1751.371094 1678.859375 1752.609375 C 1684.769531 1753.171875 1689.511719 1754.890625 1693.078125 1757.769531 C 1695.03125 1759.660156 1695.570312 1762.070312 1694.710938 1765.011719 L 1682.578125 1785.871094 L 1673.488281 1821.429688 L 1659.878906 1803.140625 C 1657.488281 1800.359375 1655 1798.820312 1652.410156 1798.53125 C 1650.679688 1798.351562 1648.878906 1798.839844 1647.011719 1799.980469 L 1632.929688 1811.421875 C 1629.960938 1812.601562 1628.140625 1813.03125 1627.460938 1812.710938 C 1626.789062 1814.210938 1619.640625 1810.019531 1606.03125 1800.128906 C 1603.671875 1799.050781 1601.519531 1798.851562 1599.558594 1799.539062 L 1579.570312 1819.171875 C 1576.640625 1821.441406 1574.730469 1822.511719 1573.828125 1822.359375 C 1572.539062 1822.480469 1571.449219 1821.988281 1570.558594 1820.871094 C 1566.070312 1812.75 1562.140625 1807.980469 1558.769531 1806.550781 C 1552.339844 1803.179688 1547.140625 1802.058594 1543.148438 1803.191406 C 1539.980469 1804.011719 1537.308594 1805.691406 1535.128906 1808.230469 C 1533.121094 1810.019531 1529.910156 1815.511719 1525.5 1824.691406 C 1523.949219 1826.839844 1522.730469 1827.75 1521.859375 1827.429688 C 1521.089844 1827.730469 1519.460938 1826.558594 1516.96875 1823.921875 L 1503.191406 1806.71875 C 1499.039062 1804.339844 1493.070312 1802.890625 1485.28125 1802.371094 C 1478.230469 1802.179688 1473.320312 1803.109375 1470.558594 1805.160156 L 1457.878906 1818.710938 C 1457.589844 1819.140625 1456.140625 1818.75 1453.550781 1817.570312 L 1436.039062 1804.808594 C 1433.929688 1803.359375 1430.808594 1803.140625 1426.660156 1804.140625 C 1422.808594 1804.390625 1416.429688 1811.578125 1407.511719 1825.691406 L 1393.199219 1807.890625 C 1389.820312 1805.25 1386.078125 1804.269531 1381.96875 1804.980469 C 1374.589844 1805.371094 1367.371094 1812.21875 1360.320312 1825.511719 C 1351.03125 1810.640625 1343.570312 1802.429688 1337.949219 1800.878906 C 1331.738281 1798.679688 1326.550781 1798.710938 1322.359375 1801 L 1314.519531 1812.328125 L 1299.578125 1801.238281 C 1295.980469 1799.660156 1293.828125 1799.070312 1293.140625 1799.449219 C 1288.941406 1799.058594 1282.628906 1805.980469 1274.230469 1820.199219 C 1272.460938 1804.078125 1270.410156 1793.53125 1268.089844 1788.570312 C 1267.488281 1784.738281 1260.898438 1776.320312 1248.320312 1763.308594 C 1247.320312 1761.148438 1247.308594 1759.761719 1248.28125 1759.140625 C 1250.191406 1757.371094 1254.621094 1756.070312 1261.558594 1755.21875 C 1307.191406 1751.320312 1329.710938 1748.699219 1329.128906 1747.339844 C 1339.449219 1745.191406 1350.128906 1739.910156 1361.160156 1731.511719 C 1314.921875 1737.078125 1277.050781 1732.890625 1247.558594 1718.941406 C 1224.550781 1735.601562 1202.910156 1743.910156 1182.628906 1743.890625 C 1165.820312 1743.058594 1143.820312 1736.808594 1116.628906 1725.109375 C 1128.96875 1736 1138.960938 1742.839844 1146.601562 1745.640625 C 1151.46875 1747.710938 1156.859375 1749.320312 1162.78125 1750.46875 L 1194.351562 1756.179688 C 1188.871094 1761.351562 1174.660156 1763.101562 1151.730469 1761.441406 C 1099.210938 1751.238281 1063.929688 1730.398438 1045.910156 1698.941406 C 1029.980469 1668.820312 1022.621094 1641.980469 1023.839844 1618.421875 C 1024.738281 1615.320312 1026.699219 1612.171875 1029.71875 1608.960938 C 1053.25 1589.261719 1069.429688 1573.03125 1078.269531 1560.289062 C 1088.859375 1545.710938 1094.878906 1527.789062 1096.308594 1506.519531 C 1097.589844 1488.53125 1096.691406 1465.089844 1093.609375 1436.179688 C 1094.089844 1470.210938 1089.570312 1499.71875 1080.070312 1524.730469 C 1079.140625 1526.558594 1078.300781 1523.710938 1077.539062 1516.191406 C 1076.691406 1488.910156 1075.808594 1472.5 1074.890625 1466.960938 C 1073.859375 1458.851562 1072.101562 1450.878906 1069.628906 1443.058594 L 1147.769531 1418.011719 C 1118.660156 1451.441406 1110.210938 1486.539062 1122.441406 1523.300781 C 1123.289062 1469.839844 1144.589844 1436.75 1186.359375 1424.050781 C 1256.96875 1401.359375 1321.789062 1403.339844 1380.828125 1429.980469 C 1356.570312 1409.148438 1328.730469 1392.769531 1297.308594 1380.851562 C 1350.328125 1373.480469 1385.621094 1370.28125 1403.179688 1371.261719 C 1417.949219 1371.960938 1426.429688 1372.679688 1428.609375 1373.441406 C 1431.480469 1373.039062 1448.070312 1377.589844 1478.359375 1387.058594 C 1485.039062 1388.851562 1491.371094 1389.308594 1497.359375 1388.460938 L 1510.71875 1384.351562 C 1537.640625 1369.121094 1553.570312 1361.148438 1558.480469 1360.441406 C 1569.121094 1356.359375 1588.988281 1352.28125 1618.089844 1348.191406 C 1606.558594 1347.980469 1595.359375 1348.359375 1584.5 1349.339844 C 1523.488281 1358.050781 1488.808594 1361.730469 1480.460938 1360.378906 C 1458.75 1360.839844 1426.539062 1356.800781 1383.828125 1348.269531 "/>
<path fill-rule="nonzero" fill="rgb(0%, 0%, 0%)" fill-opacity="1" d="M 1549.878906 1421.730469 L 1549.449219 1422.71875 L 1532.148438 1454.828125 C 1530.011719 1458.828125 1528.039062 1462.910156 1526.230469 1467.050781 C 1522.019531 1476.339844 1520.269531 1484.039062 1520.96875 1490.140625 C 1521.300781 1493.738281 1522.128906 1497.359375 1523.449219 1500.980469 C 1523.640625 1502.988281 1526.488281 1508.109375 1532.019531 1516.328125 C 1540.300781 1526.371094 1548.871094 1532 1557.738281 1533.21875 C 1564.691406 1534.820312 1573.539062 1531.609375 1584.28125 1523.609375 C 1588.929688 1519.839844 1593.269531 1515.878906 1597.289062 1511.730469 C 1626.570312 1480.378906 1642.5 1463.980469 1645.089844 1462.550781 C 1654.390625 1453.46875 1665.289062 1446.660156 1677.800781 1442.128906 C 1694.910156 1436.441406 1712.320312 1434.320312 1730.050781 1435.75 C 1749.511719 1436.839844 1764.660156 1441.070312 1775.5 1448.449219 C 1783.429688 1452.910156 1789.078125 1462.621094 1792.46875 1477.589844 C 1793.730469 1482.058594 1794.949219 1496.339844 1796.140625 1520.449219 L 1797.890625 1532.53125 C 1797.878906 1534.371094 1801.769531 1546.5 1809.539062 1568.921875 C 1810.519531 1572.378906 1811.25 1575.871094 1811.730469 1579.371094 C 1813.078125 1588.320312 1811.820312 1597.171875 1807.960938 1605.898438 C 1795.429688 1631.941406 1778.230469 1652.878906 1756.371094 1668.699219 C 1741.160156 1678.109375 1722.019531 1680.988281 1698.941406 1677.359375 C 1679.808594 1675.359375 1665.300781 1672.730469 1655.429688 1669.488281 L 1649.71875 1665.390625 C 1644.109375 1659.378906 1640.621094 1655.988281 1639.25 1655.230469 C 1638.871094 1654.589844 1636.601562 1653.570312 1632.441406 1652.160156 C 1629.878906 1651.28125 1625.578125 1650.410156 1619.550781 1649.550781 C 1598.441406 1647.609375 1587.988281 1646.390625 1588.199219 1645.890625 C 1581.75 1644.441406 1576.710938 1642.589844 1573.070312 1640.359375 C 1569.121094 1638.820312 1564.949219 1633.820312 1560.558594 1625.351562 C 1558.789062 1623.46875 1555.089844 1609.28125 1549.460938 1582.769531 C 1548.441406 1578.730469 1547.339844 1576.910156 1546.128906 1577.328125 C 1543.230469 1579.148438 1540.78125 1587.300781 1538.769531 1601.789062 C 1537.160156 1614.410156 1537.230469 1623.320312 1538.980469 1628.5 C 1539.449219 1631.570312 1541.601562 1636.140625 1545.410156 1642.210938 C 1546.289062 1644.089844 1552.921875 1652.121094 1565.308594 1666.308594 C 1568.269531 1669.929688 1569.480469 1671.78125 1568.929688 1671.859375 C 1567.609375 1673.910156 1560.761719 1670.75 1548.378906 1662.359375 C 1533.839844 1653.789062 1524 1637.519531 1518.871094 1613.570312 C 1517.328125 1608.039062 1516.449219 1601.96875 1516.25 1595.359375 C 1517.699219 1575.011719 1518.148438 1564.359375 1517.578125 1563.398438 C 1518.078125 1561.148438 1515.191406 1545.261719 1508.921875 1515.75 C 1507.410156 1504.460938 1506.859375 1497.710938 1507.28125 1495.5 C 1507.710938 1483.28125 1511.019531 1472.089844 1517.199219 1461.929688 C 1531.289062 1440.539062 1542.191406 1427.140625 1549.878906 1421.730469 "/>
<path fill-rule="nonzero" fill="rgb(0%, 0%, 0%)" fill-opacity="1" d="M 1398.089844 1419.269531 L 1398.519531 1420.25 L 1415.820312 1452.359375 C 1417.960938 1456.371094 1419.929688 1460.441406 1421.730469 1464.589844 C 1425.941406 1473.878906 1427.699219 1481.578125 1427 1487.679688 C 1426.671875 1491.28125 1425.839844 1494.890625 1424.519531 1498.519531 C 1424.339844 1500.53125 1421.480469 1505.640625 1415.949219 1513.871094 C 1407.671875 1523.910156 1399.101562 1529.539062 1390.230469 1530.761719 C 1383.28125 1532.351562 1374.429688 1529.148438 1363.691406 1521.148438 C 1359.039062 1517.378906 1354.699219 1513.421875 1350.679688 1509.261719 C 1321.398438 1477.921875 1305.46875 1461.519531 1302.890625 1460.078125 C 1293.578125 1451.011719 1282.679688 1444.199219 1270.171875 1439.660156 C 1253.058594 1433.980469 1235.640625 1431.859375 1217.921875 1433.289062 C 1198.460938 1434.371094 1183.308594 1438.609375 1172.46875 1445.988281 C 1164.539062 1450.449219 1158.890625 1460.160156 1155.5 1475.128906 C 1154.238281 1479.589844 1153.019531 1493.878906 1151.828125 1517.988281 L 1150.078125 1530.058594 C 1150.089844 1531.910156 1146.199219 1544.039062 1138.429688 1566.460938 C 1137.449219 1569.921875 1136.71875 1573.410156 1136.238281 1576.910156 C 1134.890625 1585.859375 1136.148438 1594.710938 1140.011719 1603.441406 C 1152.539062 1629.480469 1169.730469 1650.421875 1191.601562 1666.238281 C 1206.808594 1675.640625 1225.941406 1678.53125 1249.019531 1674.890625 C 1268.160156 1672.890625 1282.671875 1670.269531 1292.539062 1667.03125 L 1298.25 1662.921875 C 1303.859375 1656.910156 1307.351562 1653.53125 1308.71875 1652.769531 C 1309.101562 1652.128906 1311.371094 1651.109375 1315.53125 1649.691406 C 1318.089844 1648.820312 1322.390625 1647.949219 1328.421875 1647.089844 C 1349.53125 1645.148438 1359.980469 1643.929688 1359.769531 1643.429688 C 1366.210938 1641.96875 1371.261719 1640.128906 1374.898438 1637.898438 C 1378.859375 1636.359375 1383.019531 1631.359375 1387.410156 1622.890625 C 1389.179688 1621.011719 1392.890625 1606.820312 1398.511719 1580.308594 C 1399.519531 1576.269531 1400.640625 1574.449219 1401.851562 1574.871094 C 1404.738281 1576.679688 1407.191406 1584.839844 1409.199219 1599.320312 C 1410.820312 1611.949219 1410.75 1620.859375 1408.988281 1626.039062 C 1408.519531 1629.109375 1406.378906 1633.679688 1402.570312 1639.75 C 1401.679688 1641.628906 1395.050781 1649.660156 1382.660156 1663.839844 C 1379.699219 1667.46875 1378.488281 1669.320312 1379.039062 1669.398438 C 1380.359375 1671.449219 1387.210938 1668.28125 1399.589844 1659.898438 C 1414.128906 1651.328125 1423.960938 1635.058594 1429.101562 1611.109375 C 1430.640625 1605.578125 1431.519531 1599.511719 1431.71875 1592.898438 C 1430.269531 1572.550781 1429.820312 1561.890625 1430.390625 1560.941406 C 1429.890625 1558.679688 1432.78125 1542.800781 1439.050781 1513.289062 C 1440.558594 1502 1441.109375 1495.25 1440.691406 1493.039062 C 1440.261719 1480.820312 1436.949219 1469.621094 1430.769531 1459.460938 C 1416.679688 1438.078125 1405.78125 1424.679688 1398.089844 1419.269531 "/>
<path fill-rule="nonzero" fill="rgb(91.796875%, 91.014099%, 87.889099%)" fill-opacity="1" d="M 1279.359375 1877.148438 L 1306.25 1880.78125 C 1307.050781 1866.660156 1307.460938 1856.929688 1307.46875 1851.578125 C 1307.601562 1844.21875 1307.320312 1837.710938 1306.640625 1832.070312 C 1305.21875 1821.050781 1301.648438 1815.238281 1295.929688 1814.660156 C 1294.308594 1814.621094 1293.28125 1814.699219 1292.820312 1814.910156 C 1292.070312 1815.109375 1291.328125 1815.398438 1290.589844 1815.78125 C 1289.109375 1816.550781 1287.71875 1817.679688 1286.410156 1819.160156 C 1285.109375 1820.640625 1283.96875 1822.449219 1283 1824.589844 C 1282.140625 1826.511719 1281.441406 1828.660156 1280.890625 1831.039062 C 1279.808594 1835.839844 1279.171875 1841.320312 1278.960938 1847.460938 C 1278.730469 1856.789062 1278.859375 1866.691406 1279.359375 1877.148438 "/>
<path fill-rule="nonzero" fill="rgb(91.796875%, 91.014099%, 87.889099%)" fill-opacity="1" d="M 1313.660156 1881.820312 L 1353.480469 1887.828125 C 1353.960938 1872.140625 1354.101562 1861.328125 1353.890625 1855.390625 C 1353.738281 1847.21875 1353.070312 1840 1351.878906 1833.730469 C 1350.558594 1827.320312 1348.679688 1822.691406 1346.25 1819.859375 C 1344.308594 1817.179688 1341.28125 1815.390625 1337.148438 1814.460938 C 1333.191406 1813.769531 1329.058594 1814.859375 1324.769531 1817.75 C 1322.359375 1819.730469 1320.980469 1821.03125 1320.628906 1821.679688 C 1318.859375 1823.941406 1317.570312 1826.171875 1316.738281 1828.339844 C 1315.800781 1830.679688 1315.039062 1833.238281 1314.46875 1836.03125 L 1313.730469 1840.339844 C 1313.328125 1843.320312 1313.058594 1846.460938 1312.921875 1849.761719 C 1312.648438 1859.839844 1312.898438 1870.519531 1313.660156 1881.820312 "/>
<path fill-rule="nonzero" fill="rgb(91.796875%, 91.014099%, 87.889099%)" fill-opacity="1" d="M 1359.570312 1889.5 L 1396.320312 1892.96875 C 1397.089844 1876.929688 1397.449219 1865.871094 1397.398438 1859.800781 C 1397.460938 1851.449219 1397.050781 1844.089844 1396.179688 1837.71875 C 1395.199219 1831.199219 1393.710938 1826.53125 1391.699219 1823.699219 C 1389.300781 1820.289062 1386.441406 1818.519531 1383.109375 1818.359375 C 1379.238281 1818.199219 1375.519531 1819.921875 1371.949219 1823.5 C 1370.21875 1825.28125 1368.679688 1827.460938 1367.328125 1830.058594 C 1366.210938 1832.25 1365.25 1834.699219 1364.441406 1837.410156 C 1362.859375 1842.871094 1361.75 1849.070312 1361.101562 1856.019531 C 1360.199219 1866.558594 1359.691406 1877.710938 1359.570312 1889.5 "/>
<path fill-rule="nonzero" fill="rgb(91.796875%, 91.014099%, 87.889099%)" fill-opacity="1" d="M 1408.488281 1899.890625 L 1457.550781 1902.28125 C 1456.738281 1886.101562 1455.519531 1870.960938 1453.878906 1856.859375 C 1452.738281 1847.589844 1451.109375 1839.550781 1448.988281 1832.75 C 1446.730469 1825.871094 1444.019531 1820.988281 1440.851562 1818.101562 C 1437.578125 1815.03125 1434.109375 1813.5 1430.441406 1813.519531 C 1421.441406 1813.910156 1415.109375 1821.011719 1411.460938 1834.820312 C 1409.890625 1841.460938 1408.921875 1849.109375 1408.519531 1857.789062 C 1408.019531 1870.960938 1408.011719 1885 1408.488281 1899.890625 "/>
<path fill-rule="nonzero" fill="rgb(91.796875%, 91.014099%, 87.889099%)" fill-opacity="1" d="M 1464.191406 1901.519531 L 1513.320312 1901.449219 C 1514.800781 1878.691406 1515.5 1862.179688 1515.421875 1851.910156 C 1515.398438 1843.03125 1514.671875 1836.851562 1513.230469 1833.371094 C 1511.789062 1830.03125 1509.359375 1827.761719 1505.949219 1826.550781 C 1496.011719 1822.390625 1490.738281 1820.28125 1490.140625 1820.199219 C 1487.050781 1819.140625 1484.128906 1818.558594 1481.378906 1818.46875 C 1474.089844 1818.070312 1469.238281 1822.929688 1466.820312 1833.058594 C 1465.371094 1839.289062 1464.460938 1846.960938 1464.109375 1856.089844 C 1463.671875 1870.011719 1463.691406 1885.160156 1464.191406 1901.519531 "/>
<path fill-rule="nonzero" fill="rgb(91.796875%, 91.014099%, 87.889099%)" fill-opacity="1" d="M 1517.148438 1899.871094 L 1565.921875 1899.371094 C 1566.570312 1884.308594 1566.699219 1870.28125 1566.339844 1857.28125 C 1566.03125 1848.75 1565.121094 1841.449219 1563.609375 1835.371094 C 1562.839844 1832.371094 1561.859375 1829.800781 1560.671875 1827.640625 C 1560.460938 1827.101562 1559.640625 1825.941406 1558.191406 1824.160156 C 1556.121094 1821.578125 1552.921875 1820.128906 1548.589844 1819.820312 C 1538.46875 1820.78125 1530.898438 1828.039062 1525.878906 1841.609375 C 1523.730469 1847.730469 1522.070312 1854.679688 1520.910156 1862.449219 C 1519.238281 1874.230469 1517.988281 1886.710938 1517.148438 1899.871094 "/>
<path fill-rule="nonzero" fill="rgb(91.796875%, 91.014099%, 87.889099%)" fill-opacity="1" d="M 1573.371094 1889.039062 L 1573.421875 1883.058594 C 1573.378906 1870.898438 1573.960938 1859.609375 1575.160156 1849.179688 C 1576.03125 1842.308594 1577.511719 1836.308594 1579.609375 1831.171875 C 1581.859375 1825.820312 1585.058594 1821.671875 1589.230469 1818.71875 C 1593.570312 1815.960938 1597.519531 1814.898438 1601.089844 1815.519531 C 1603.898438 1816.109375 1605.828125 1816.851562 1606.871094 1817.738281 C 1608.320312 1818.699219 1609.640625 1819.980469 1610.828125 1821.570312 C 1611.109375 1821.730469 1611.96875 1823.25 1613.421875 1826.128906 C 1614.480469 1828.539062 1615.351562 1831.308594 1616.058594 1834.421875 C 1617.421875 1840.71875 1618.300781 1848 1618.691406 1856.269531 C 1619.078125 1862.269531 1619.261719 1873.210938 1619.230469 1889.101562 L 1573.371094 1889.039062 "/>
<path fill-rule="nonzero" fill="rgb(91.796875%, 91.014099%, 87.889099%)" fill-opacity="1" d="M 1626.898438 1882.039062 L 1664.359375 1879.578125 C 1664.921875 1866.320312 1665 1853.980469 1664.609375 1842.570312 C 1664.289062 1835.070312 1663.398438 1828.660156 1661.941406 1823.339844 C 1659.128906 1813.769531 1653.96875 1809.320312 1646.460938 1809.988281 C 1644.351562 1810.238281 1642.289062 1810.960938 1640.25 1812.148438 C 1637.78125 1813.820312 1636.339844 1814.949219 1635.941406 1815.550781 C 1634.121094 1817.390625 1632.539062 1819.621094 1631.210938 1822.269531 C 1630.109375 1824.5 1629.210938 1826.988281 1628.5 1829.71875 C 1627.128906 1835.238281 1626.339844 1841.488281 1626.128906 1848.460938 C 1625.890625 1859.039062 1626.148438 1870.230469 1626.898438 1882.039062 "/>
<path fill-rule="nonzero" fill="rgb(91.796875%, 91.014099%, 87.889099%)" fill-opacity="1" d="M 1657.570312 1908.988281 L 1624.75 1911.699219 C 1626.699219 1921.109375 1628.390625 1927.550781 1629.820312 1931 C 1630.378906 1932.421875 1630.980469 1933.640625 1631.628906 1934.640625 L 1632.640625 1935.960938 L 1633.71875 1936.878906 C 1634.558594 1937.359375 1635.269531 1937.539062 1635.851562 1937.441406 L 1637.269531 1937.058594 L 1638.800781 1936.148438 L 1640.410156 1934.769531 C 1641.519531 1933.699219 1642.679688 1932.371094 1643.878906 1930.800781 C 1646.871094 1926.988281 1651.429688 1919.71875 1657.570312 1908.988281 "/>
<path fill-rule="nonzero" fill="rgb(91.796875%, 91.014099%, 87.889099%)" fill-opacity="1" d="M 1577.058594 1919.738281 L 1578.609375 1925.761719 C 1581.730469 1938.25 1584.820312 1948.75 1587.890625 1957.269531 C 1588.910156 1959.960938 1589.929688 1962.210938 1590.941406 1964.019531 L 1592.460938 1966.328125 L 1593.96875 1967.808594 L 1595.460938 1968.378906 L 1595.789062 1968.371094 L 1597.308594 1967.730469 L 1598.808594 1966.128906 L 1600.300781 1963.648438 C 1601.289062 1961.710938 1602.28125 1959.308594 1603.269531 1956.441406 C 1605.730469 1949.488281 1609.128906 1936.191406 1613.480469 1916.519531 L 1577.058594 1919.738281 "/>
<path fill-rule="nonzero" fill="rgb(91.796875%, 91.014099%, 87.889099%)" fill-opacity="1" d="M 1515.789062 1924.109375 L 1515.550781 1928.921875 C 1515.191406 1935.378906 1515.03125 1941.578125 1515.050781 1947.519531 C 1515.070312 1953.449219 1515.539062 1958.78125 1516.429688 1963.5 C 1516.898438 1965.828125 1517.519531 1967.949219 1518.300781 1969.851562 L 1519.601562 1972.511719 C 1520.25 1973.601562 1520.960938 1974.578125 1521.75 1975.449219 C 1522.078125 1976.011719 1523.398438 1977.089844 1525.71875 1978.699219 C 1529.710938 1980.898438 1533.949219 1981.96875 1538.421875 1981.910156 C 1543.75 1982.019531 1548.5 1980.941406 1552.648438 1978.679688 C 1553.539062 1978.101562 1554.339844 1977.410156 1555.039062 1976.621094 L 1556.019531 1975.339844 C 1556.628906 1974.429688 1557.148438 1973.378906 1557.601562 1972.210938 C 1558.910156 1968.691406 1559.679688 1963.761719 1559.910156 1957.390625 C 1560.238281 1950.03125 1560.070312 1938.871094 1559.410156 1923.898438 L 1515.789062 1924.109375 "/>
<path fill-rule="nonzero" fill="rgb(91.796875%, 91.014099%, 87.889099%)" fill-opacity="1" d="M 1464.601562 1923.730469 L 1464.679688 1928.339844 C 1464.761719 1948.769531 1466.230469 1963.371094 1469.109375 1972.148438 C 1470.421875 1975.960938 1472.070312 1979.070312 1474.039062 1981.480469 C 1475.03125 1982.691406 1476.070312 1983.738281 1477.179688 1984.640625 C 1477.679688 1985.269531 1479.441406 1986.28125 1482.460938 1987.691406 C 1486.410156 1989.109375 1490.351562 1989.371094 1494.269531 1988.488281 C 1498.238281 1987.660156 1501.671875 1985.339844 1504.539062 1981.550781 C 1505.46875 1980.269531 1506.289062 1978.78125 1507 1977.109375 L 1507.960938 1974.429688 C 1508.539062 1972.53125 1508.988281 1970.441406 1509.320312 1968.160156 C 1509.660156 1965.878906 1509.890625 1963.429688 1510.019531 1960.828125 C 1510.179688 1959.679688 1510.210938 1955.511719 1510.128906 1948.320312 C 1510.050781 1943.96875 1509.621094 1936.25 1508.851562 1925.160156 L 1464.601562 1923.730469 "/>
<path fill-rule="nonzero" fill="rgb(91.796875%, 91.014099%, 87.889099%)" fill-opacity="1" d="M 1410.890625 1924.519531 L 1410.921875 1928.589844 C 1410.96875 1940.828125 1411.378906 1949.769531 1412.160156 1955.410156 C 1413 1960.929688 1413.601562 1964.089844 1413.96875 1964.890625 C 1414.5 1966.800781 1415.128906 1968.550781 1415.851562 1970.121094 C 1418.089844 1974.839844 1420.929688 1978.25 1424.359375 1980.351562 C 1427.738281 1982.460938 1431.351562 1983.441406 1435.191406 1983.28125 C 1438.878906 1983.171875 1442.25 1981.800781 1445.320312 1979.160156 C 1446.328125 1978.269531 1447.269531 1977.210938 1448.148438 1976 L 1449.410156 1974.058594 C 1450.210938 1972.671875 1450.929688 1971.109375 1451.570312 1969.378906 C 1452.199219 1967.640625 1452.738281 1965.730469 1453.199219 1963.660156 C 1453.519531 1962.78125 1454.058594 1959.378906 1454.820312 1953.441406 C 1455.519531 1947.359375 1456.011719 1937.910156 1456.308594 1925.101562 L 1410.890625 1924.519531 "/>
<path fill-rule="nonzero" fill="rgb(91.796875%, 91.014099%, 87.889099%)" fill-opacity="1" d="M 1363.171875 1923.109375 L 1362.960938 1926.878906 C 1362.460938 1934.519531 1362.371094 1941.730469 1362.699219 1948.488281 C 1362.960938 1952.960938 1363.640625 1957 1364.738281 1960.589844 C 1365.878906 1963.96875 1367.261719 1966.648438 1368.910156 1968.640625 C 1369.738281 1969.710938 1370.640625 1970.671875 1371.589844 1971.539062 C 1372.03125 1972.101562 1373.550781 1973.179688 1376.171875 1974.78125 C 1379.261719 1976.511719 1382.679688 1977.359375 1386.449219 1977.359375 C 1390.148438 1977.238281 1393.328125 1975.929688 1395.980469 1973.429688 C 1398.058594 1971.109375 1399.21875 1969.570312 1399.46875 1968.789062 C 1400.140625 1967.558594 1400.738281 1966.210938 1401.261719 1964.71875 C 1402.769531 1960.179688 1403.691406 1954.671875 1404.019531 1948.191406 C 1404.359375 1942.910156 1404.429688 1934.851562 1404.230469 1924.011719 L 1363.171875 1923.109375 "/>
<path fill-rule="nonzero" fill="rgb(91.796875%, 91.014099%, 87.889099%)" fill-opacity="1" d="M 1323.570312 1916.609375 L 1323.878906 1919.148438 C 1324.800781 1926.769531 1325.890625 1932.78125 1327.160156 1937.179688 C 1327.640625 1938.929688 1328.210938 1940.699219 1328.851562 1942.488281 C 1329.128906 1943.53125 1330.230469 1946.089844 1332.148438 1950.179688 C 1337.648438 1960.789062 1342.578125 1966.410156 1346.929688 1967.050781 C 1348.25 1966.988281 1349.289062 1966.121094 1350.03125 1964.449219 L 1350.789062 1962.300781 C 1351.238281 1960.648438 1351.601562 1958.660156 1351.859375 1956.328125 L 1352.179688 1952.621094 C 1352.359375 1950 1352.46875 1947.148438 1352.519531 1944.058594 C 1352.628906 1939.589844 1352.53125 1931.121094 1352.210938 1918.640625 L 1323.570312 1916.609375 "/>
<path fill-rule="nonzero" fill="rgb(91.796875%, 91.014099%, 87.889099%)" fill-opacity="1" d="M 1289.351562 1909.179688 L 1291.671875 1913.269531 C 1296.410156 1921.761719 1300.699219 1928.910156 1304.570312 1934.738281 C 1305.820312 1936.589844 1306.980469 1938.128906 1308.039062 1939.390625 L 1309.539062 1940.988281 L 1310.851562 1942.03125 L 1311.96875 1942.480469 L 1312.871094 1942.269531 L 1313.570312 1941.441406 L 1314.089844 1940.070312 C 1314.371094 1938.960938 1314.558594 1937.570312 1314.640625 1935.871094 C 1314.910156 1931.78125 1314.539062 1923.78125 1313.519531 1911.871094 L 1289.351562 1909.179688 "/>
<path fill-rule="nonzero" fill="rgb(91.796875%, 91.014099%, 87.889099%)" fill-opacity="1" d="M 1737.351562 1824.820312 L 1737.660156 1824.828125 C 1744.289062 1824.511719 1752.058594 1831.980469 1760.980469 1847.21875 C 1766.078125 1856.878906 1766.308594 1865 1761.660156 1871.558594 C 1757.121094 1878.519531 1752.070312 1883.890625 1746.539062 1887.648438 C 1744.628906 1889.050781 1741.871094 1890.660156 1738.25 1892.480469 L 1713.738281 1904.289062 C 1706.988281 1908.671875 1700.921875 1913.910156 1695.519531 1920.019531 C 1684.75 1932.621094 1675.179688 1945.289062 1666.800781 1958.03125 L 1647.660156 1996.230469 C 1645.480469 2000.261719 1642.941406 2004.246094 1640.019531 2008.195312 C 1631.460938 2019.851562 1617.679688 2033.578125 1598.679688 2049.378906 C 1578.878906 2064.105469 1560.699219 2072.074219 1544.160156 2073.28125 C 1532.050781 2074.898438 1522.820312 2074.710938 1516.488281 2072.71875 C 1512.550781 2072.238281 1502.949219 2067.425781 1487.679688 2058.285156 C 1483.5 2056.253906 1479.121094 2055.253906 1474.53125 2055.28125 C 1472.761719 2054.871094 1467.921875 2055.972656 1460.019531 2058.589844 L 1427.628906 2074 C 1425.519531 2075.023438 1421.199219 2075.726562 1414.671875 2076.109375 C 1411.460938 2076.339844 1406.179688 2075.515625 1398.839844 2073.632812 C 1390.949219 2071.210938 1382.441406 2067.8125 1373.289062 2063.433594 C 1355.351562 2054.730469 1340.429688 2045.542969 1328.558594 2035.871094 C 1320.691406 2029.566406 1311.769531 2019.273438 1301.808594 2004.996094 C 1296.511719 1997.890625 1285.839844 1978.578125 1269.789062 1947.058594 C 1263.871094 1937.679688 1259.171875 1931.230469 1255.679688 1927.71875 C 1246.390625 1917.449219 1235.941406 1908.480469 1224.339844 1900.800781 C 1218.480469 1896.199219 1208.871094 1891.578125 1195.5 1886.929688 C 1192.339844 1885.441406 1189.53125 1883.378906 1187.070312 1880.769531 C 1181.820312 1874.429688 1179.519531 1866.691406 1180.160156 1857.570312 C 1183.679688 1843.019531 1188.941406 1833.300781 1195.96875 1828.390625 C 1200.691406 1824.46875 1205.550781 1823.410156 1210.539062 1825.199219 C 1215.21875 1827.101562 1220.089844 1830.769531 1225.140625 1836.21875 C 1232.78125 1845.050781 1239.171875 1853.328125 1244.308594 1861.078125 C 1270.589844 1907.378906 1284.101562 1929.679688 1284.828125 1927.960938 C 1296.480469 1943.070312 1309.449219 1955.039062 1323.75 1963.859375 C 1328.769531 1967.21875 1335.671875 1970.351562 1344.46875 1973.261719 C 1346.179688 1973.519531 1347.878906 1973.5 1349.570312 1973.171875 C 1356.589844 1969.890625 1360.828125 1968.78125 1362.300781 1969.839844 C 1363.878906 1969.261719 1367.941406 1974.03125 1374.460938 1984.160156 C 1375.75 1985.589844 1377.300781 1986.53125 1379.101562 1986.980469 C 1380.460938 1987.601562 1382.800781 1987.148438 1386.128906 1985.640625 C 1394.230469 1979.148438 1399.699219 1975.949219 1402.550781 1976.058594 C 1405.308594 1976.320312 1407.511719 1977.058594 1409.140625 1978.269531 L 1420.851562 1987.621094 C 1422.878906 1988.871094 1425.089844 1989.78125 1427.460938 1990.339844 C 1437.808594 1992.089844 1444.230469 1992.421875 1446.730469 1991.339844 C 1449.070312 1991.390625 1452.410156 1988.371094 1456.761719 1982.269531 C 1458.128906 1981.570312 1459.039062 1981.308594 1459.480469 1981.46875 C 1460.320312 1981.449219 1461.390625 1981.960938 1462.671875 1983.019531 C 1466.828125 1988.511719 1470.160156 1991.769531 1472.671875 1992.820312 C 1474.550781 1994.191406 1478.089844 1994.851562 1483.308594 1994.789062 C 1489.421875 1994.890625 1495.308594 1993.941406 1500.960938 1991.929688 C 1503.300781 1991.660156 1507.871094 1988.578125 1514.671875 1982.699219 C 1516.601562 1981.691406 1517.808594 1981.210938 1518.300781 1981.238281 C 1518.691406 1980.980469 1519.710938 1981.121094 1521.359375 1981.660156 C 1527.261719 1986.609375 1531.460938 1988.941406 1533.96875 1988.671875 C 1539.570312 1989.878906 1545.160156 1989.851562 1550.730469 1988.578125 C 1553.488281 1988.210938 1556.019531 1986.960938 1558.300781 1984.851562 L 1566.460938 1969.929688 C 1568.898438 1967.121094 1570.601562 1965.761719 1571.558594 1965.859375 C 1572.699219 1965.550781 1573.800781 1965.71875 1574.851562 1966.378906 L 1584.171875 1974.25 C 1586.570312 1975.339844 1588.480469 1975.800781 1589.910156 1975.601562 C 1600.429688 1975.320312 1612.730469 1970.519531 1626.808594 1961.199219 C 1641.441406 1950.960938 1653.980469 1938.820312 1664.429688 1924.78125 C 1667.390625 1922.410156 1677 1904.75 1693.25 1871.789062 C 1696.441406 1866.28125 1702.46875 1857.859375 1711.320312 1846.5 C 1722.910156 1832.160156 1731.589844 1824.941406 1737.351562 1824.820312 "/>
<path fill-rule="nonzero" fill="rgb(0%, 0%, 0%)" fill-opacity="1" d="M 1473.480469 1605.390625 L 1474.808594 1605.519531 C 1481.898438 1605.929688 1487.109375 1609.929688 1490.429688 1617.53125 C 1490.820312 1618.109375 1492.109375 1621.140625 1494.308594 1626.601562 C 1500.761719 1644.179688 1504.660156 1654.558594 1506.019531 1657.738281 C 1516.671875 1682.449219 1522.410156 1696.03125 1523.230469 1698.46875 C 1526.429688 1706.53125 1528.808594 1714.191406 1530.371094 1721.480469 L 1531.230469 1726.75 C 1531.648438 1730.320312 1531.730469 1733.421875 1531.480469 1736.039062 L 1530.941406 1740.050781 C 1530.429688 1742.621094 1529.699219 1744.980469 1528.75 1747.121094 C 1524.621094 1755.949219 1518.628906 1760.351562 1510.78125 1760.320312 C 1507.75 1760.109375 1504.589844 1758.480469 1501.289062 1755.429688 C 1500.429688 1754.910156 1498.25 1752.320312 1494.769531 1747.660156 C 1493.070312 1745.300781 1489.671875 1739.761719 1484.570312 1731.039062 C 1484.128906 1730.25 1483.089844 1728.789062 1481.441406 1726.679688 C 1478.710938 1723.441406 1476.019531 1722.089844 1473.359375 1722.640625 L 1473.480469 1605.390625 "/>
<path fill-rule="nonzero" fill="rgb(0%, 0%, 0%)" fill-opacity="1" d="M 1473.488281 1605.390625 L 1472.160156 1605.519531 C 1465.070312 1605.929688 1459.859375 1609.929688 1456.539062 1617.53125 C 1456.148438 1618.109375 1454.859375 1621.140625 1452.660156 1626.601562 C 1446.210938 1644.179688 1442.308594 1654.558594 1440.941406 1657.738281 C 1430.300781 1682.449219 1424.558594 1696.03125 1423.738281 1698.46875 C 1420.539062 1706.53125 1418.160156 1714.191406 1416.601562 1721.480469 L 1415.730469 1726.75 C 1415.320312 1730.320312 1415.238281 1733.421875 1415.488281 1736.039062 L 1416.03125 1740.050781 C 1416.539062 1742.621094 1417.269531 1744.980469 1418.21875 1747.121094 C 1422.351562 1755.949219 1428.339844 1760.351562 1436.191406 1760.320312 C 1439.21875 1760.109375 1442.378906 1758.480469 1445.679688 1755.429688 C 1446.539062 1754.910156 1448.710938 1752.320312 1452.199219 1747.660156 C 1453.898438 1745.300781 1457.300781 1739.761719 1462.390625 1731.039062 C 1462.839844 1730.25 1463.878906 1728.789062 1465.519531 1726.679688 C 1468.261719 1723.441406 1470.949219 1722.089844 1473.609375 1722.640625 L 1473.488281 1605.390625 "/>
<path fill-rule="nonzero" fill="rgb(0%, 0%, 0%)" fill-opacity="1" d="M 1847.929688 1591.800781 L 1847.621094 1591.160156 L 1845.378906 1586.070312 C 1841.261719 1574.800781 1838.96875 1568.75 1838.5 1567.910156 C 1837.46875 1565.539062 1836.5 1564.53125 1835.589844 1564.878906 C 1835.128906 1565.828125 1834.960938 1566.871094 1835.070312 1567.980469 C 1837.160156 1584.261719 1837.878906 1596.039062 1837.21875 1603.320312 C 1836.980469 1609.359375 1834.671875 1617.988281 1830.289062 1629.210938 C 1823.71875 1645.628906 1815.621094 1662.191406 1805.980469 1678.898438 C 1803.539062 1682.78125 1800.660156 1686.441406 1797.351562 1689.878906 C 1796.359375 1691.171875 1790.359375 1696.78125 1779.339844 1706.710938 C 1778.179688 1708.089844 1777.78125 1709.199219 1778.148438 1710.050781 C 1779.789062 1712.789062 1788.988281 1712.25 1805.738281 1708.429688 C 1813.699219 1706.480469 1819 1703.019531 1821.648438 1698.03125 C 1822.628906 1696.519531 1823.570312 1693.679688 1824.46875 1689.519531 L 1826.5 1672.660156 C 1827.011719 1669.359375 1827.359375 1667.390625 1827.53125 1666.75 C 1828.320312 1662.808594 1829.570312 1659.058594 1831.300781 1655.480469 C 1832.78125 1651.921875 1837.488281 1644.820312 1845.441406 1634.210938 C 1847.390625 1631.730469 1848.871094 1630.070312 1849.871094 1629.230469 C 1855.488281 1624.550781 1858.398438 1621.960938 1858.609375 1621.460938 C 1860.089844 1619.871094 1861.160156 1618.058594 1861.808594 1616 C 1862.53125 1614.53125 1862.140625 1612.128906 1860.640625 1608.820312 C 1860.308594 1607.671875 1856.949219 1603.359375 1850.558594 1595.859375 C 1849.558594 1594.519531 1848.679688 1593.160156 1847.929688 1591.800781 "/>
<path fill-rule="nonzero" fill="rgb(0%, 0%, 0%)" fill-opacity="1" d="M 1824.941406 1518.191406 L 1825.011719 1517.980469 C 1831.808594 1482.578125 1829.71875 1454.441406 1818.761719 1433.558594 C 1806.851562 1411.648438 1785.351562 1394.871094 1754.261719 1383.21875 C 1723.140625 1371.988281 1692.339844 1369.699219 1661.859375 1376.339844 C 1629.648438 1384.359375 1597.820312 1400.871094 1566.390625 1425.871094 C 1601.449219 1410.199219 1621.320312 1401.621094 1626.011719 1400.128906 C 1638.570312 1395.269531 1651.71875 1391.679688 1665.429688 1389.359375 C 1692.089844 1385.359375 1719.980469 1388.398438 1749.109375 1398.46875 C 1777.429688 1408.339844 1797.089844 1422 1808.089844 1439.441406 C 1813.28125 1448.121094 1816.871094 1457.5 1818.851562 1467.589844 C 1820.570312 1474.671875 1822.210938 1489.96875 1823.75 1513.480469 C 1824.039062 1516.410156 1824.429688 1517.980469 1824.941406 1518.191406 "/>
<path fill-rule="nonzero" fill="rgb(0%, 0%, 0%)" fill-opacity="1" d="M 1097.488281 1589.53125 L 1097.769531 1588.859375 C 1098.320312 1587.621094 1098.960938 1585.800781 1099.699219 1583.398438 C 1102.640625 1572.941406 1104.660156 1566.121094 1105.769531 1562.941406 C 1106.691406 1560.820312 1107.628906 1560.480469 1108.578125 1561.929688 C 1108.921875 1561.859375 1109.300781 1564.441406 1109.730469 1569.691406 C 1110.269531 1599.769531 1110.878906 1615.859375 1111.53125 1617.960938 C 1112.160156 1624.988281 1113.910156 1632.28125 1116.808594 1639.839844 C 1121.648438 1651.871094 1130.039062 1666.230469 1141.980469 1682.921875 C 1144.558594 1686.671875 1147.460938 1690.121094 1150.679688 1693.269531 C 1151.691406 1694.359375 1156.570312 1698.460938 1165.308594 1705.570312 C 1166.359375 1706.589844 1166.78125 1707.761719 1166.558594 1709.070312 C 1163.550781 1712.28125 1154.128906 1713.320312 1138.320312 1712.179688 C 1130.960938 1711.730469 1125.628906 1708.871094 1122.339844 1703.601562 C 1121.078125 1700.960938 1120.269531 1698.109375 1119.910156 1695.039062 C 1119.480469 1692.109375 1118.96875 1686.171875 1118.390625 1677.238281 C 1118.019531 1673.539062 1117.761719 1671.328125 1117.601562 1670.609375 C 1116.679688 1665.578125 1115.679688 1661.941406 1114.589844 1659.710938 C 1114.25 1658.160156 1111.949219 1654.101562 1107.679688 1647.53125 C 1097.910156 1634.941406 1092.238281 1627.28125 1090.671875 1624.539062 C 1088.980469 1621.878906 1087.519531 1619.109375 1086.289062 1616.230469 C 1085.820312 1615.140625 1085.460938 1614 1085.199219 1612.800781 C 1084.460938 1609.71875 1084.75 1606.789062 1086.089844 1604 C 1086.519531 1602.621094 1089.621094 1598.941406 1095.378906 1592.949219 C 1096.140625 1591.988281 1096.839844 1590.851562 1097.488281 1589.53125 "/>
<path fill-rule="nonzero" fill="rgb(0%, 0%, 0%)" fill-opacity="1" d="M 1610.121094 2011.953125 L 1611 2011.183594 C 1617.941406 2005.070312 1624.191406 1998.699219 1629.738281 1992.089844 L 1635.359375 1984.808594 C 1635.859375 1983.519531 1635.640625 1982.859375 1634.679688 1982.828125 C 1634.460938 1982.820312 1634.070312 1982.988281 1633.5 1983.328125 C 1632.28125 1984.078125 1631.058594 1984.921875 1629.851562 1985.839844 L 1609.960938 2001.640625 C 1606.300781 2004.488281 1602.539062 2007.214844 1598.691406 2009.816406 C 1589.5 2015.882812 1582.539062 2019.464844 1577.820312 2020.5625 C 1573.230469 2022.132812 1565.371094 2022.816406 1554.230469 2022.621094 C 1549.511719 2022.484375 1544.789062 2022.199219 1540.078125 2021.769531 L 1514.03125 2019.15625 C 1512.53125 2019.035156 1510.808594 2018.972656 1508.859375 2018.960938 C 1508.128906 2018.996094 1507.679688 2019.105469 1507.480469 2019.289062 C 1506.378906 2019.886719 1507.289062 2020.621094 1510.210938 2021.496094 L 1531.488281 2027.578125 C 1534.230469 2028.433594 1536.351562 2029.289062 1537.871094 2030.152344 C 1540.328125 2031.574219 1542.058594 2032.890625 1543.050781 2034.105469 C 1543.261719 2034.0625 1544.96875 2036.582031 1548.191406 2041.65625 C 1548.929688 2042.703125 1549.78125 2043.652344 1550.738281 2044.496094 C 1552.710938 2046.035156 1554.710938 2046.757812 1556.761719 2046.671875 C 1565.601562 2045.796875 1583.390625 2034.222656 1610.121094 2011.953125 "/>
<path fill-rule="nonzero" fill="rgb(0%, 0%, 0%)" fill-opacity="1" d="M 1334.210938 2012.617188 L 1333.339844 2011.839844 C 1326.460938 2005.648438 1320.289062 1999.210938 1314.820312 1992.53125 L 1309.269531 1985.191406 C 1308.789062 1983.898438 1309.019531 1983.25 1309.980469 1983.230469 C 1310.191406 1983.21875 1310.589844 1983.390625 1311.148438 1983.730469 C 1312.359375 1984.5 1313.570312 1985.359375 1314.769531 1986.289062 L 1334.480469 2002.304688 C 1338.121094 2005.199219 1341.851562 2007.96875 1345.660156 2010.609375 C 1354.789062 2016.777344 1361.699219 2020.433594 1366.410156 2021.585938 C 1370.988281 2023.207031 1378.839844 2023.980469 1389.980469 2023.90625 C 1394.699219 2023.824219 1399.421875 2023.589844 1404.140625 2023.214844 L 1430.210938 2020.886719 C 1431.710938 2020.785156 1433.441406 2020.742188 1435.390625 2020.753906 C 1436.109375 2020.796875 1436.570312 2020.910156 1436.761719 2021.09375 C 1437.859375 2021.703125 1436.941406 2022.429688 1434.011719 2023.273438 L 1412.660156 2029.113281 C 1409.921875 2029.941406 1407.789062 2030.773438 1406.261719 2031.621094 C 1403.78125 2033.015625 1402.039062 2034.3125 1401.03125 2035.515625 C 1400.820312 2035.472656 1399.078125 2037.96875 1395.808594 2043.007812 C 1395.058594 2044.046875 1394.191406 2044.984375 1393.230469 2045.820312 C 1391.238281 2047.335938 1389.230469 2048.039062 1387.179688 2047.925781 C 1378.351562 2046.957031 1360.691406 2035.1875 1334.210938 2012.617188 "/>
<path fill-rule="nonzero" fill="rgb(99.609375%, 60.351562%, 1.960754%)" fill-opacity="1" d="M 1627.628906 1169.578125 L 1602.558594 1171.269531 C 1552.828125 1174.269531 1501.179688 1178.941406 1447.601562 1185.289062 C 1411.710938 1189.660156 1373.890625 1195.710938 1334.160156 1203.429688 C 1324.730469 1204.800781 1293.671875 1211.789062 1240.960938 1224.378906 C 1213.519531 1231.019531 1158.101562 1245.769531 1074.679688 1268.628906 C 1060.949219 1272.300781 1049.96875 1275.039062 1041.75 1276.839844 L 1032.050781 1278.609375 C 1023.261719 1279.058594 1028.800781 1274.769531 1048.660156 1265.738281 C 1068.101562 1256.75 1095.710938 1245.941406 1131.5 1233.289062 C 1186.640625 1213.480469 1245.671875 1197.441406 1308.589844 1185.179688 C 1328.859375 1181.539062 1348.898438 1178.558594 1368.710938 1176.261719 L 1398.28125 1173.21875 C 1417.878906 1171.5 1437.320312 1170.25 1456.601562 1169.46875 C 1466.378906 1168.691406 1495.039062 1168.25 1542.589844 1168.160156 C 1552.121094 1168.089844 1580.46875 1168.558594 1627.628906 1169.578125 "/>
<path fill-rule="nonzero" fill="rgb(99.609375%, 60.351562%, 1.960754%)" fill-opacity="1" d="M 976.390625 1354.441406 L 964.402344 1362.171875 C 908.542969 1398.289062 873.292969 1425.230469 858.644531 1442.988281 C 836.429688 1467.089844 823.660156 1490.851562 820.339844 1514.269531 C 818.886719 1525.601562 820.414062 1535.671875 824.917969 1544.488281 C 828.144531 1549.761719 830.296875 1552.75 831.375 1553.480469 C 834.820312 1557.089844 838.960938 1560.308594 843.796875 1563.140625 C 857.894531 1572.820312 891.25 1581.101562 943.855469 1587.988281 C 878.664062 1594.058594 835.28125 1591.460938 813.714844 1580.179688 C 806.261719 1576.660156 799.964844 1572.019531 794.832031 1566.230469 C 790.738281 1561.589844 787.441406 1556.351562 784.941406 1550.519531 C 779.910156 1538.699219 778.296875 1525.558594 780.105469 1511.101562 C 781.910156 1496.640625 787.429688 1482.238281 796.664062 1467.898438 L 804.359375 1457.480469 C 810.003906 1450.671875 816.554688 1444.109375 824.003906 1437.789062 C 843.980469 1418.191406 894.773438 1390.410156 976.390625 1354.441406 "/>
<path fill-rule="nonzero" fill="rgb(99.609375%, 60.351562%, 1.960754%)" fill-opacity="1" d="M 1225.511719 1146.441406 L 1232.191406 1143.738281 C 1297.820312 1116.371094 1363.308594 1098.679688 1428.640625 1090.648438 C 1534.640625 1077.839844 1627.808594 1073.738281 1708.160156 1078.351562 C 1780.429688 1083.179688 1850.519531 1094.871094 1918.421875 1113.429688 C 2015.890625 1140.058594 2086.800781 1166.328125 2131.140625 1192.25 C 2219.578125 1239.820312 2252.609375 1309.230469 2230.21875 1400.488281 C 2210.671875 1469.910156 2138.441406 1529.128906 2013.53125 1578.140625 C 1976.539062 1592.378906 1953.359375 1600.191406 1944 1601.570312 C 2008.238281 1571.910156 2060.929688 1537.570312 2102.070312 1498.570312 C 2144.679688 1458 2169.601562 1415.800781 2176.828125 1371.96875 C 2179.660156 1346.738281 2171.300781 1323.121094 2151.75 1301.128906 C 2144.828125 1293.109375 2133.71875 1283.871094 2118.429688 1273.410156 C 2100.089844 1261.339844 2074.570312 1246.75 2041.859375 1229.648438 C 2038.300781 1227.761719 2035.988281 1225.898438 2034.929688 1224.070312 C 2055.339844 1223.601562 2086.890625 1234.101562 2129.589844 1255.558594 C 2154.261719 1270.539062 2175.980469 1291.460938 2194.761719 1318.320312 C 2180.039062 1278.789062 2147.191406 1245.230469 2096.21875 1217.609375 C 1971.089844 1152.910156 1844.230469 1116.359375 1715.628906 1107.949219 C 1557.109375 1098.71875 1393.738281 1111.550781 1225.511719 1146.441406 "/>
<path fill-rule="nonzero" fill="rgb(99.609375%, 60.351562%, 1.960754%)" fill-opacity="1" d="M 1801.21875 966.898438 L 1794.019531 962.648438 C 1783.609375 956.558594 1776.738281 952.160156 1773.410156 949.46875 C 1771.171875 947.910156 1769.46875 943.96875 1768.328125 937.621094 C 1763.578125 898.128906 1762.28125 850.339844 1764.410156 794.25 C 1765.75 769.109375 1769.671875 743.859375 1776.191406 718.480469 C 1778.839844 704.601562 1790.730469 672.960938 1811.871094 623.550781 C 1814.128906 617.101562 1814.660156 612.480469 1813.449219 609.691406 C 1813.171875 608.558594 1811.890625 607.269531 1809.601562 605.820312 C 1801.730469 602.730469 1782.589844 592.320312 1752.160156 574.570312 C 1744.238281 571.011719 1738.410156 572.691406 1734.648438 579.621094 C 1721.691406 607.371094 1707.898438 647.628906 1693.300781 700.390625 C 1687.980469 717.5 1680.160156 763.699219 1669.828125 839 C 1667.738281 849.878906 1666.21875 854.558594 1665.261719 853.03125 C 1660.589844 836.851562 1659.179688 768.148438 1661.019531 646.929688 C 1660.019531 626.460938 1658.691406 612.839844 1657.019531 606.089844 C 1653.378906 586.820312 1647.339844 570.539062 1638.890625 557.230469 C 1634.640625 550.480469 1629.890625 544.289062 1624.621094 538.648438 L 1596.128906 509.160156 C 1595.929688 505.988281 1602.839844 505.960938 1616.871094 509.070312 L 1695.359375 529.519531 C 1698.339844 528.429688 1706.191406 517.429688 1718.929688 496.53125 C 1721.890625 490.828125 1721.679688 486.28125 1718.289062 482.898438 C 1688.128906 463.28125 1633.511719 447.808594 1554.421875 436.5 C 1530.511719 433.058594 1498.519531 430.660156 1458.441406 429.300781 C 1444.949219 428.378906 1405.390625 429.820312 1339.75 433.628906 C 1331.910156 433.820312 1327.898438 433.488281 1327.730469 432.628906 C 1407.488281 413.539062 1491.480469 406.46875 1579.691406 411.410156 C 1661.078125 418.011719 1730.789062 438.269531 1788.828125 472.191406 C 1827.78125 496.28125 1852.179688 521.890625 1862.050781 549.011719 C 1862.089844 554.609375 1860.988281 561.558594 1858.71875 569.859375 C 1840.03125 636.351562 1828.53125 680.089844 1824.21875 701.089844 C 1816.199219 737.839844 1810.539062 768.421875 1807.210938 792.828125 C 1798.761719 841.199219 1796.769531 899.21875 1801.21875 966.898438 "/>
<path fill-rule="nonzero" fill="rgb(99.609375%, 60.351562%, 1.960754%)" fill-opacity="1" d="M 1816.089844 2066.914062 L 1817.488281 2067.261719 C 1830.679688 2070.320312 1842.25 2074.8125 1852.21875 2080.738281 C 1861.78125 2086.371094 1866.910156 2092.171875 1867.601562 2098.136719 C 1867.550781 2102.484375 1864.058594 2106.917969 1857.121094 2111.4375 C 1854.910156 2113.183594 1851.039062 2115.816406 1845.5 2119.332031 L 1817.660156 2135.773438 C 1815.230469 2137.207031 1812.96875 2138.761719 1810.890625 2140.433594 C 1806.761719 2143.765625 1806.488281 2145.617188 1810.101562 2145.980469 C 1813.390625 2146.605469 1816.769531 2146.621094 1820.230469 2146.039062 C 1832.199219 2144.234375 1841.859375 2142.441406 1849.191406 2140.664062 C 1862.121094 2137.742188 1873.308594 2133.808594 1882.78125 2128.863281 C 1891.691406 2124.75 1902.140625 2117.40625 1914.128906 2106.824219 C 1919.621094 2101.832031 1923.050781 2096.195312 1924.421875 2089.914062 C 1924.890625 2082.519531 1920.308594 2074.707031 1910.679688 2066.472656 C 1899.75 2057.707031 1887.71875 2051.894531 1874.570312 2049.035156 C 1855.210938 2045.316406 1829.410156 2044.457031 1797.179688 2046.457031 C 1776.910156 2047.367188 1755.089844 2051.265625 1731.71875 2058.15625 L 1717.050781 2063.199219 C 1714.128906 2065.21875 1714.050781 2066.585938 1716.800781 2067.292969 L 1730.710938 2067.136719 C 1762.96875 2065.519531 1781.441406 2064.792969 1786.121094 2064.964844 C 1800.371094 2064.890625 1810.359375 2065.539062 1816.089844 2066.914062 "/>
<path fill-rule="nonzero" fill="rgb(99.609375%, 60.351562%, 1.960754%)" fill-opacity="1" d="M 1123.628906 2068.332031 L 1122.21875 2068.660156 C 1108.988281 2071.503906 1097.351562 2075.8125 1087.289062 2081.578125 C 1077.628906 2087.0625 1072.410156 2092.777344 1071.628906 2098.730469 C 1071.609375 2103.078125 1075.03125 2107.566406 1081.890625 2112.199219 C 1084.070312 2113.976562 1087.910156 2116.671875 1093.390625 2120.273438 L 1120.960938 2137.160156 C 1123.371094 2138.632812 1125.601562 2140.222656 1127.648438 2141.929688 C 1131.730469 2145.324219 1131.96875 2147.179688 1128.359375 2147.488281 C 1125.058594 2148.054688 1121.679688 2148.019531 1118.230469 2147.382812 C 1106.289062 2145.386719 1096.660156 2143.441406 1089.351562 2141.546875 C 1076.480469 2138.417969 1065.339844 2134.304688 1055.960938 2129.210938 C 1047.121094 2124.957031 1036.789062 2117.445312 1024.960938 2106.675781 C 1019.558594 2101.597656 1016.21875 2095.90625 1014.941406 2089.605469 C 1014.589844 2082.203125 1019.289062 2074.464844 1029.058594 2066.386719 C 1040.128906 2057.796875 1052.25 2052.175781 1065.441406 2049.523438 C 1084.859375 2046.113281 1110.660156 2045.667969 1142.859375 2048.179688 C 1163.109375 2049.414062 1184.859375 2053.660156 1208.128906 2060.921875 L 1222.710938 2066.195312 C 1225.601562 2068.265625 1225.660156 2069.632812 1222.898438 2070.296875 L 1208.988281 2069.917969 C 1176.761719 2067.785156 1158.308594 2066.765625 1153.621094 2066.863281 C 1139.378906 2066.5625 1129.378906 2067.050781 1123.628906 2068.332031 "/>
<path fill-rule="nonzero" fill="rgb(99.609375%, 60.351562%, 1.960754%)" fill-opacity="1" d="M 2050.808594 2358.648438 L 2049.539062 2354.253906 C 2044.730469 2335.472656 2036.839844 2318.140625 2025.859375 2302.261719 C 2010.808594 2281.664062 1994.761719 2265.699219 1977.71875 2254.363281 C 1964.011719 2244.886719 1948.878906 2237.839844 1932.328125 2233.230469 C 1913.128906 2227.769531 1886.851562 2223.746094 1853.480469 2221.164062 C 1868.589844 2213.855469 1881.328125 2209.246094 1891.691406 2207.339844 C 1895.789062 2206.527344 1900.109375 2205.96875 1904.671875 2205.660156 L 1911.71875 2205.429688 C 1916.550781 2205.421875 1921.691406 2205.757812 1927.140625 2206.4375 C 1941.378906 2208.828125 1950.179688 2210.699219 1953.519531 2212.046875 C 1959.691406 2213.835938 1965.871094 2215.972656 1972.070312 2218.449219 C 1984.640625 2223.417969 1996.320312 2229.65625 2007.128906 2237.167969 C 2023.421875 2248.507812 2034.691406 2262.253906 2040.941406 2278.40625 C 2048.359375 2297.074219 2051.648438 2323.820312 2050.808594 2358.648438 "/>
<path fill-rule="nonzero" fill="rgb(99.609375%, 60.351562%, 1.960754%)" fill-opacity="1" d="M 896.164062 2366.695312 L 897.246094 2362.25 C 901.242188 2343.28125 908.382812 2325.628906 918.671875 2309.292969 C 932.832031 2288.070312 948.183594 2271.429688 964.726562 2259.378906 C 978.015625 2249.320312 992.828125 2241.632812 1009.171875 2236.320312 C 1028.109375 2230.042969 1054.199219 2224.898438 1087.429688 2220.886719 C 1072.019531 2214.234375 1059.089844 2210.175781 1048.660156 2208.714844 C 1044.53125 2208.078125 1040.191406 2207.703125 1035.621094 2207.589844 L 1028.570312 2207.664062 C 1023.75 2207.859375 1018.621094 2208.414062 1013.199219 2209.332031 C 999.078125 2212.328125 990.371094 2214.574219 987.082031 2216.0625 C 981.003906 2218.117188 974.917969 2220.511719 968.824219 2223.253906 C 956.480469 2228.757812 945.074219 2235.492188 934.609375 2243.457031 C 918.808594 2255.484375 908.136719 2269.699219 902.589844 2286.105469 C 895.976562 2305.074219 893.835938 2331.9375 896.164062 2366.695312 "/>
<path fill-rule="nonzero" fill="rgb(99.609375%, 60.351562%, 1.960754%)" fill-opacity="1" d="M 1518.179688 2125.546875 L 1517.21875 2168.28125 C 1513.699219 2165.421875 1510.179688 2163.019531 1506.648438 2161.078125 C 1505.46875 2160.476562 1504.289062 2159.996094 1503.109375 2159.632812 L 1501.339844 2159.199219 C 1500.160156 2158.980469 1498.980469 2158.933594 1497.800781 2159.054688 L 1496.019531 2159.390625 C 1494.839844 2159.722656 1493.640625 2160.226562 1492.449219 2160.898438 C 1491.261719 2161.574219 1490.058594 2162.34375 1488.859375 2163.214844 C 1484.609375 2166.441406 1481.539062 2168.613281 1479.609375 2169.734375 C 1478.351562 2170.480469 1477.058594 2171.082031 1475.769531 2171.53125 L 1473.800781 2172.042969 L 1471.808594 2172.246094 C 1470.460938 2172.269531 1469.121094 2172.136719 1467.761719 2171.84375 C 1466.398438 2171.554688 1465.039062 2171.164062 1463.679688 2170.675781 C 1456.96875 2167.914062 1453.050781 2166.410156 1451.929688 2166.167969 L 1450.128906 2165.742188 C 1448.941406 2165.53125 1447.800781 2165.449219 1446.691406 2165.496094 C 1444.488281 2165.617188 1442.398438 2166.117188 1440.429688 2167 C 1437.488281 2168.378906 1434.640625 2170.082031 1431.890625 2172.105469 L 1429.839844 2138.609375 C 1435.160156 2137.867188 1439.589844 2137.59375 1443.121094 2137.789062 C 1445.648438 2138 1447.191406 2138.183594 1447.710938 2138.339844 C 1454.570312 2140.042969 1458.269531 2140.863281 1458.820312 2140.800781 C 1461.460938 2140.996094 1463.039062 2140.996094 1463.558594 2140.796875 C 1464.589844 2140.644531 1465.621094 2140.347656 1466.640625 2139.914062 L 1468.148438 2139.140625 C 1469.148438 2138.542969 1470.160156 2137.839844 1471.160156 2137.027344 C 1476.300781 2132.5 1479.550781 2129.773438 1480.921875 2128.855469 C 1483.320312 2127.066406 1486.011719 2125.730469 1488.988281 2124.84375 C 1490.488281 2124.421875 1492.050781 2124.117188 1493.691406 2123.929688 L 1496.179688 2123.714844 C 1497.871094 2123.625 1499.609375 2123.613281 1501.390625 2123.6875 C 1506.808594 2123.992188 1512.398438 2124.613281 1518.179688 2125.546875 "/>
<path fill-rule="nonzero" fill="rgb(99.609375%, 60.351562%, 1.960754%)" fill-opacity="1" d="M 1480.53125 2298.882812 L 1482.289062 2298.878906 C 1487.570312 2298.886719 1491.519531 2298.445312 1494.140625 2297.554688 C 1497.339844 2296.652344 1500.179688 2294.75 1502.679688 2291.84375 C 1507.539062 2285.921875 1511.25 2275.589844 1513.808594 2260.851562 C 1514.789062 2254.589844 1515.300781 2250.738281 1515.339844 2249.296875 C 1515.589844 2246.613281 1515.75 2243.875 1515.828125 2241.089844 C 1515.910156 2238.304688 1515.878906 2235.488281 1515.738281 2232.648438 L 1515.441406 2228.382812 C 1515.191406 2225.53125 1514.800781 2222.6875 1514.269531 2219.855469 C 1512.75 2212.210938 1510.691406 2205.558594 1508.070312 2199.890625 C 1505.460938 2194.226562 1503.171875 2191.25 1501.210938 2190.964844 C 1500.121094 2190.5625 1499.289062 2192.375 1498.710938 2196.402344 C 1498.488281 2198.402344 1498.339844 2200.8125 1498.28125 2203.636719 L 1498.148438 2223.617188 C 1498.121094 2227.332031 1498.03125 2231.078125 1497.878906 2234.855469 C 1497.589844 2242.488281 1496.820312 2249.59375 1495.558594 2256.175781 C 1494.269531 2262.703125 1492.621094 2268.816406 1490.621094 2274.511719 C 1487.558594 2282.988281 1484.191406 2291.113281 1480.53125 2298.882812 "/>
<path fill-rule="nonzero" fill="rgb(99.609375%, 60.351562%, 1.960754%)" fill-opacity="1" d="M 1468.191406 2282.765625 L 1467.351562 2284.074219 C 1463.949219 2289.175781 1461.460938 2291.933594 1459.898438 2292.339844 C 1457.351562 2293.707031 1454.519531 2293.519531 1451.378906 2291.78125 C 1447.480469 2289.605469 1443.539062 2285.769531 1439.570312 2280.265625 C 1435.589844 2274.765625 1432.648438 2268.429688 1430.738281 2261.261719 C 1428.5 2251.789062 1428.269531 2241.648438 1430.050781 2230.84375 C 1431.519531 2222.199219 1433.378906 2214.5625 1435.621094 2207.933594 C 1437.691406 2201.214844 1440.070312 2195.382812 1442.78125 2190.441406 C 1444.058594 2188.503906 1444.640625 2188.953125 1444.539062 2191.785156 L 1444.359375 2194.25 L 1442.511719 2210.136719 L 1442.03125 2215.101562 C 1441.71875 2218.511719 1441.519531 2221.984375 1441.421875 2225.515625 C 1441.140625 2232.707031 1441.691406 2239.335938 1443.058594 2245.40625 C 1443.769531 2248.378906 1444.691406 2251.171875 1445.808594 2253.789062 L 1447.609375 2257.609375 C 1448.898438 2260.078125 1450.339844 2262.421875 1451.910156 2264.640625 C 1456.789062 2271.160156 1462.210938 2277.203125 1468.191406 2282.765625 "/>
<path fill-rule="nonzero" fill="rgb(99.609375%, 60.351562%, 1.960754%)" fill-opacity="1" d="M 1490.558594 2233.226562 L 1490.128906 2237.863281 C 1488.808594 2247.183594 1486.058594 2254.539062 1481.878906 2259.9375 C 1477.671875 2265.328125 1472.960938 2267.34375 1467.75 2265.988281 C 1462.800781 2264.226562 1459.019531 2259.664062 1456.410156 2252.300781 C 1455.570312 2249.925781 1454.910156 2247.347656 1454.441406 2244.570312 L 1453.890625 2240.300781 C 1453.621094 2237.367188 1453.570312 2234.320312 1453.75 2231.15625 C 1454.421875 2221.460938 1456.671875 2213.488281 1460.5 2207.242188 C 1464.320312 2200.992188 1468.851562 2197.890625 1474.070312 2197.941406 C 1479.28125 2198.476562 1483.429688 2202.066406 1486.53125 2208.703125 C 1489.628906 2215.339844 1490.96875 2223.515625 1490.558594 2233.226562 "/>
<path fill-rule="nonzero" fill="rgb(99.609375%, 60.351562%, 1.960754%)" fill-opacity="1" d="M 1635.449219 2159.945312 L 1633.96875 2160.183594 C 1630.46875 2159.910156 1607.171875 2165.515625 1564.078125 2177.003906 C 1557.019531 2178.179688 1558.960938 2175.515625 1569.898438 2169.007812 C 1588.378906 2158.171875 1609.890625 2147.621094 1634.421875 2137.351562 C 1652.621094 2129.894531 1680.851562 2120.480469 1719.128906 2109.101562 C 1731.128906 2106.132812 1740.140625 2114.640625 1746.171875 2134.628906 C 1749.441406 2149.820312 1750.769531 2164.644531 1750.148438 2179.101562 C 1749.511719 2187.429688 1748.539062 2193.578125 1747.261719 2197.550781 C 1747.160156 2198.957031 1743.710938 2208.085938 1736.921875 2224.941406 C 1734.921875 2231.523438 1733.941406 2235.507812 1733.988281 2236.90625 C 1733.539062 2239.8125 1733.511719 2243.332031 1733.898438 2247.464844 C 1737.550781 2265.164062 1739.101562 2276.914062 1738.550781 2282.710938 C 1738.019531 2308.390625 1736.679688 2326.375 1734.53125 2336.667969 C 1731.820312 2350.308594 1726.550781 2362.371094 1718.71875 2372.851562 C 1710.5 2383.351562 1702.480469 2388.847656 1694.640625 2389.332031 C 1684.621094 2390.824219 1668.390625 2385.105469 1645.960938 2372.171875 C 1613.910156 2354.492188 1587.640625 2337.578125 1567.160156 2321.4375 C 1566.878906 2320.148438 1567.871094 2319.699219 1570.140625 2320.097656 C 1594.160156 2329.832031 1612.511719 2335.910156 1625.179688 2338.339844 C 1634.539062 2340.324219 1644.289062 2341.835938 1654.460938 2342.878906 C 1661.539062 2343.738281 1664.128906 2343.40625 1662.199219 2341.886719 L 1606.570312 2322.542969 C 1599.761719 2320.105469 1593.019531 2317.492188 1586.359375 2314.707031 C 1566.058594 2305.835938 1553.621094 2299.210938 1549.019531 2294.839844 C 1549 2293.949219 1551.109375 2294.113281 1555.351562 2295.332031 C 1582.980469 2303.097656 1604.210938 2308.28125 1619.058594 2310.875 C 1640.351562 2314.75 1650.648438 2315.835938 1649.96875 2314.128906 C 1651.160156 2313 1643.75 2308.4375 1627.761719 2300.4375 C 1616.691406 2294.554688 1593.75 2285.089844 1558.929688 2272.039062 C 1555.441406 2270.351562 1555.191406 2269.324219 1558.171875 2268.964844 C 1602.089844 2273.671875 1644.660156 2280.320312 1685.890625 2288.914062 C 1694.171875 2289.914062 1698.230469 2289.683594 1698.089844 2288.222656 C 1699.800781 2285.269531 1692.519531 2277.140625 1676.269531 2263.839844 C 1665.441406 2255.050781 1655.828125 2249.414062 1647.441406 2246.917969 C 1643.121094 2245.183594 1633.460938 2243.75 1618.46875 2242.613281 C 1613.71875 2241.75 1590.800781 2241.097656 1549.71875 2240.652344 C 1546.089844 2240.46875 1544.019531 2239.753906 1543.488281 2238.507812 C 1542.5 2236.761719 1543.648438 2234.746094 1546.929688 2232.460938 C 1553.660156 2228.316406 1562.5 2223.835938 1573.429688 2219.015625 C 1584.769531 2213.574219 1608.390625 2205.304688 1644.300781 2194.199219 C 1648.5 2192.605469 1650.410156 2191.59375 1650 2191.160156 C 1650.480469 2189.707031 1640.480469 2190.132812 1620.011719 2192.441406 C 1598.011719 2194.953125 1574.238281 2198.914062 1548.691406 2204.320312 C 1544.621094 2204.296875 1543.628906 2203.828125 1545.710938 2202.90625 C 1562.769531 2195.628906 1590.789062 2186.070312 1629.789062 2174.230469 C 1639.820312 2170.84375 1662.640625 2166.78125 1698.261719 2162.042969 C 1699.519531 2161.128906 1698.640625 2160.457031 1695.601562 2160.027344 C 1691.839844 2159.46875 1685.441406 2159.039062 1676.421875 2158.738281 C 1659.949219 2158.339844 1646.300781 2158.746094 1635.449219 2159.945312 "/>
<path fill-rule="nonzero" fill="rgb(99.609375%, 60.351562%, 1.960754%)" fill-opacity="1" d="M 1312.578125 2161.804688 L 1314.058594 2162.050781 C 1317.558594 2161.804688 1340.820312 2167.585938 1383.820312 2179.394531 C 1390.871094 2180.625 1388.949219 2177.945312 1378.058594 2171.355469 C 1359.660156 2160.382812 1338.230469 2149.667969 1313.769531 2139.214844 C 1295.640625 2131.625 1267.46875 2122 1229.28125 2110.335938 C 1217.300781 2107.277344 1208.230469 2115.71875 1202.058594 2135.660156 C 1198.660156 2150.828125 1197.230469 2165.640625 1197.738281 2180.101562 C 1198.320312 2188.4375 1199.238281 2194.59375 1200.5 2198.574219 C 1200.589844 2199.980469 1203.960938 2209.136719 1210.628906 2226.039062 C 1212.578125 2232.636719 1213.53125 2236.628906 1213.46875 2238.023438 C 1213.890625 2240.9375 1213.898438 2244.457031 1213.480469 2248.585938 C 1209.699219 2266.257812 1208.058594 2277.996094 1208.570312 2283.796875 C 1208.910156 2309.476562 1210.121094 2327.472656 1212.179688 2337.78125 C 1214.800781 2351.441406 1219.980469 2363.542969 1227.71875 2374.082031 C 1235.859375 2384.644531 1243.851562 2390.199219 1251.679688 2390.742188 C 1261.691406 2392.308594 1277.960938 2386.710938 1300.488281 2373.945312 C 1332.671875 2356.503906 1359.058594 2339.789062 1379.660156 2323.800781 C 1379.960938 2322.511719 1378.96875 2322.058594 1376.691406 2322.4375 C 1352.601562 2331.992188 1334.210938 2337.9375 1321.519531 2340.269531 C 1312.148438 2342.183594 1302.378906 2343.625 1292.210938 2344.589844 C 1285.121094 2345.394531 1282.539062 2345.042969 1284.46875 2343.539062 L 1340.25 2324.613281 C 1347.070312 2322.226562 1353.828125 2319.664062 1360.519531 2316.929688 C 1380.878906 2308.207031 1393.371094 2301.675781 1398.011719 2297.339844 C 1398.03125 2296.449219 1395.921875 2296.597656 1391.671875 2297.785156 C 1363.980469 2305.34375 1342.710938 2310.367188 1327.839844 2312.851562 C 1306.53125 2316.566406 1296.210938 2317.574219 1296.910156 2315.875 C 1295.730469 2314.738281 1303.171875 2310.230469 1319.21875 2302.347656 C 1330.328125 2296.546875 1353.351562 2287.253906 1388.269531 2274.464844 C 1391.761719 2272.804688 1392.019531 2271.78125 1389.039062 2271.394531 C 1345.101562 2275.773438 1302.46875 2282.105469 1261.179688 2290.390625 C 1252.890625 2291.328125 1248.828125 2291.070312 1248.988281 2289.613281 C 1247.300781 2286.644531 1254.628906 2278.570312 1270.988281 2265.386719 C 1281.878906 2256.683594 1291.539062 2251.117188 1299.941406 2248.683594 C 1304.28125 2246.980469 1313.941406 2245.621094 1328.941406 2244.597656 C 1333.699219 2243.769531 1356.621094 2243.285156 1397.699219 2243.148438 C 1401.339844 2242.992188 1403.421875 2242.292969 1403.949219 2241.050781 C 1404.949219 2239.3125 1403.820312 2237.289062 1400.558594 2234.976562 C 1393.859375 2230.78125 1385.058594 2226.234375 1374.160156 2221.335938 C 1362.859375 2215.8125 1339.300781 2207.363281 1303.480469 2195.988281 C 1299.289062 2194.363281 1297.390625 2193.335938 1297.800781 2192.910156 C 1297.320312 2191.449219 1307.320312 2191.953125 1327.78125 2194.414062 C 1349.761719 2197.089844 1373.5 2201.226562 1399.011719 2206.824219 C 1403.078125 2206.832031 1404.078125 2206.367188 1402 2205.433594 C 1385 2198.027344 1357.039062 2188.261719 1318.140625 2176.128906 C 1308.128906 2172.667969 1285.339844 2168.4375 1249.761719 2163.433594 C 1248.5 2162.507812 1249.390625 2161.84375 1252.429688 2161.4375 C 1256.199219 2160.90625 1262.589844 2160.523438 1271.621094 2160.289062 C 1288.089844 2160.015625 1301.738281 2160.523438 1312.578125 2161.804688 "/>
<path fill-rule="nonzero" fill="rgb(99.609375%, 60.351562%, 1.960754%)" fill-opacity="1" d="M 1463.628906 2358.675781 L 1466.210938 2358.628906 C 1475.441406 2358.929688 1486.308594 2355.914062 1498.808594 2349.585938 C 1494.96875 2381.738281 1492.679688 2407.324219 1491.921875 2426.339844 C 1491.128906 2453.1875 1491.398438 2473.0625 1492.730469 2485.96875 C 1493.28125 2498.222656 1496.140625 2520.277344 1501.320312 2552.128906 C 1505.210938 2575.042969 1511.890625 2608.160156 1521.359375 2651.480469 L 1420.28125 2654.03125 C 1428.261719 2571.773438 1433.289062 2523.582031 1435.378906 2509.457031 C 1438.078125 2489.730469 1439.621094 2479.675781 1440.011719 2479.289062 C 1441.039062 2474.308594 1442.011719 2471.574219 1442.890625 2471.09375 C 1444.460938 2471.308594 1445.730469 2475.507812 1446.699219 2483.691406 C 1446.808594 2482.230469 1448.871094 2502.167969 1452.878906 2543.507812 L 1455.210938 2563.371094 C 1456.480469 2574.308594 1458.839844 2588.816406 1462.308594 2606.894531 C 1467.808594 2631.945312 1471.371094 2636.671875 1472.980469 2621.082031 C 1474.828125 2597.527344 1474.78125 2561.316406 1472.839844 2512.449219 C 1471.609375 2477.019531 1468.539062 2425.761719 1463.628906 2358.675781 "/>
<path fill-rule="nonzero" fill="rgb(99.609375%, 60.351562%, 1.960754%)" fill-opacity="1" d="M 1562.910156 2651.738281 L 1674.308594 2628.871094 C 1653.871094 2555.875 1641.589844 2508.941406 1637.46875 2488.0625 C 1632.269531 2464.398438 1630.550781 2444.519531 1632.320312 2428.425781 C 1606.808594 2418.476562 1590.070312 2411.035156 1582.101562 2406.109375 C 1576.859375 2403.792969 1567.441406 2396.5625 1553.859375 2384.414062 C 1551.769531 2383.207031 1550.671875 2382.796875 1550.539062 2383.1875 C 1548.871094 2383.105469 1548.179688 2386.816406 1548.46875 2394.328125 C 1549.300781 2403.730469 1550.398438 2411.46875 1551.78125 2417.546875 C 1553.429688 2427.53125 1559.339844 2448.484375 1569.511719 2480.402344 C 1570.019531 2482.359375 1570.28125 2483.742188 1570.28125 2484.554688 L 1570.03125 2485.242188 C 1566.820312 2483.460938 1559.988281 2470.972656 1549.519531 2447.785156 C 1548.320312 2445.253906 1545.960938 2439.242188 1542.429688 2429.75 C 1534.390625 2405.402344 1530.378906 2393.898438 1530.410156 2395.230469 C 1528.441406 2390.8125 1527.71875 2395.199219 1528.25 2408.390625 C 1534.691406 2513.128906 1546.25 2594.242188 1562.910156 2651.738281 "/>
<path fill-rule="nonzero" fill="rgb(99.609375%, 60.351562%, 1.960754%)" fill-opacity="1" d="M 1374.429688 2645.996094 L 1263.039062 2623.128906 C 1280.640625 2560.886719 1292.921875 2513.953125 1299.871094 2482.320312 C 1301.988281 2474.011719 1303.808594 2462.035156 1305.308594 2446.386719 C 1305.910156 2437.738281 1305.808594 2429.835938 1305.019531 2422.683594 C 1333.511719 2411.429688 1350.878906 2403.675781 1357.140625 2399.414062 C 1362.628906 2396.386719 1371.410156 2389.472656 1383.480469 2378.671875 C 1384.800781 2377.875 1385.820312 2377.417969 1386.570312 2377.304688 C 1388.289062 2377.371094 1389.070312 2380.34375 1388.929688 2386.222656 C 1388.449219 2394.078125 1387.628906 2401.171875 1386.441406 2407.507812 L 1382.488281 2425.445312 C 1379.5 2436.976562 1374.609375 2453.382812 1367.828125 2474.660156 C 1367.03125 2477.75 1366.859375 2479.363281 1367.308594 2479.5 C 1371.929688 2475.136719 1378.921875 2462.324219 1388.261719 2441.070312 C 1389.558594 2438.132812 1391.769531 2432.445312 1394.910156 2424.011719 C 1402.058594 2402.367188 1406.019531 2390.871094 1406.789062 2389.523438 C 1407.808594 2387.527344 1408.480469 2387.292969 1408.820312 2388.816406 C 1409.238281 2388.972656 1409.339844 2393.585938 1409.089844 2402.652344 C 1406.230469 2449.199219 1402.359375 2491.082031 1397.46875 2528.300781 L 1393.621094 2555.339844 C 1390.929688 2572.78125 1387.980469 2589.058594 1384.78125 2604.167969 C 1381.589844 2619.277344 1378.128906 2633.21875 1374.429688 2645.996094 "/>
</svg>
